{"asset":{"version":"2.0","generator":"babylon.js glTF exporter for 3dsmax 2020 v20240125.3"},"scene":0,"scenes":[{"nodes":[0,1,2,3,4,5,6,7,8,9,10,11,12,13,14,15,16,17,18,19,20,21,22,23,24,25,26,27,28,29,30,31,32,33,34,35,36,37,38,39,40,41,42,43,44,45,46,47,48,49,50,51,52,53,54,55,56,57,58,59,60,61,62,63,64,65,66,67,68,69,70,71,72,73,74,75,76,77,78,79,80,81,82,83,84,85,86,87,88,89,90,91,92,93,94,95,96,97,98,99,100,101,102,103,104,105,106,107,108,109,110,111,112,113,114,115,116,117]}],"nodes":[{"mesh":0,"translation":[9.04688549,6.99196339,6.54086971],"name":"Dira_001"},{"mesh":0,"translation":[9.04688549,13.0008154,6.54086971],"name":"Dira_011"},{"mesh":0,"translation":[9.04688549,16.0008144,6.54086971],"name":"Dira_016"},{"mesh":0,"translation":[9.04688549,22.00082,6.54086971],"name":"Dira_026"},{"mesh":0,"translation":[9.04688549,25.0008144,6.54086971],"name":"Dira_031"},{"mesh":0,"translation":[9.04688549,31.0008144,6.54086971],"name":"Dira_041"},{"mesh":1,"translation":[0.1976477,6.99196339,8.584591],"name":"Dira_002"},{"mesh":1,"translation":[0.1976477,10.00082,8.584591],"name":"Dira_007"},{"mesh":1,"translation":[0.1976477,16.0008144,8.584591],"name":"Dira_017"},{"mesh":1,"translation":[0.1976477,19.00082,8.584591],"name":"Dira_022"},{"mesh":1,"translation":[0.1976477,25.0008144,8.584591],"name":"Dira_032"},{"mesh":1,"translation":[0.1976477,31.0008144,8.584591],"name":"Dira_042"},{"mesh":2,"translation":[-6.77735233,6.99196339,-7.342909],"name":"Dira_004"},{"mesh":2,"translation":[-6.77735233,10.00082,-7.342909],"name":"Dira_009"},{"mesh":2,"translation":[-6.77735233,13.0008154,-7.342909],"name":"Dira_014"},{"mesh":2,"translation":[-6.77735233,19.00082,-7.342909],"name":"Dira_024"},{"mesh":2,"translation":[-6.77735233,22.00082,-7.342909],"name":"Dira_029"},{"mesh":2,"translation":[-6.77735233,28.00082,-7.342909],"name":"Dira_039"},{"mesh":2,"translation":[-6.77735233,31.0008144,-7.342909],"name":"Dira_044"},{"mesh":3,"translation":[6.993052,6.99196339,-7.342909],"name":"Dira_005"},{"mesh":3,"translation":[6.993052,10.00082,-7.342909],"name":"Dira_010"},{"mesh":3,"translation":[6.993052,16.0008144,-7.342909],"name":"Dira_020"},{"mesh":3,"translation":[6.993052,22.00082,-7.342909],"name":"Dira_030"},{"mesh":3,"translation":[6.993052,25.0008144,-7.342909],"name":"Dira_035"},{"mesh":3,"translation":[6.993052,31.0008144,-7.342909],"name":"Dira_045"},{"mesh":4,"translation":[-9.200868,6.99196339,6.82219839],"name":"Dira_003"},{"mesh":4,"translation":[-9.200868,10.00082,6.82219839],"name":"Dira_008"},{"mesh":4,"translation":[-9.200868,19.00082,6.82219839],"name":"Dira_023"},{"mesh":4,"translation":[-9.200868,25.0008144,6.82219839],"name":"Dira_033"},{"mesh":4,"translation":[-9.200868,28.00082,6.82219839],"name":"Dira_038"},{"mesh":4,"translation":[-9.200868,31.0008144,6.82219839],"name":"Dira_043"},{"mesh":5,"translation":[-6.77735233,34.0008278,6.822207],"name":"Dira_047"},{"mesh":5,"translation":[-6.77735233,37.0008545,6.822207],"name":"Dira_253"},{"mesh":5,"translation":[-6.77735233,40.0008774,6.822207],"name":"Dira_254"},{"mesh":5,"translation":[-6.77735233,46.000927,6.822207],"name":"Dira_256"},{"mesh":5,"translation":[-6.77735233,52.0009766,6.822207],"name":"Dira_258"},{"mesh":5,"translation":[-6.77735233,55.001,6.822207],"name":"Dira_259"},{"mesh":5,"translation":[-6.77735233,61.00105,6.822207],"name":"Dira_261"},{"mesh":5,"translation":[-6.77735233,70.00112,6.822207],"name":"Dira_264"},{"mesh":5,"translation":[-6.77735233,73.0011444,6.822207],"name":"Dira_265"},{"mesh":6,"translation":[6.97264767,34.0008278,6.822207],"name":"Dira_046"},{"mesh":6,"translation":[6.97264767,40.00088,6.822207],"name":"Dira_268"},{"mesh":6,"translation":[6.97264767,46.0009346,6.822207],"name":"Dira_270"},{"mesh":6,"translation":[6.97264767,52.0009956,6.822207],"name":"Dira_272"},{"mesh":6,"translation":[6.97264767,55.0010223,6.822207],"name":"Dira_273"},{"mesh":6,"translation":[6.97264767,61.0010834,6.822207],"name":"Dira_275"},{"mesh":6,"translation":[6.97264767,70.00117,6.822207],"name":"Dira_278"},{"mesh":7,"translation":[6.97264767,34.0008278,-8.317473],"name":"Dira_048"},{"mesh":7,"translation":[6.97264767,40.0008736,-8.317473],"name":"Dira_240"},{"mesh":7,"translation":[6.97264767,52.0009575,-8.317473],"name":"Dira_244"},{"mesh":7,"translation":[6.97264767,58.0009956,-8.317473],"name":"Dira_246"},{"mesh":7,"translation":[6.97264767,64.00103,-8.317473],"name":"Dira_248"},{"mesh":8,"translation":[-6.777196,34.0008278,-8.317473],"name":"Dira_049"},{"mesh":8,"translation":[-6.777196,37.00085,-8.317473],"name":"Dira_225"},{"mesh":8,"translation":[-6.777196,52.0009575,-8.317473],"name":"Dira_230"},{"mesh":8,"translation":[-6.777196,55.0009766,-8.317473],"name":"Dira_231"},{"mesh":8,"translation":[-6.777196,73.00109,-8.317473],"name":"Dira_237"},{"mesh":8,"translation":[-6.777196,76.0011139,-8.317473],"name":"Dira_238"},{"mesh":9,"translation":[9.04688549,10.00082,6.54086971],"name":"Dira_006"},{"mesh":9,"translation":[9.04688549,19.00082,6.54086971],"name":"Dira_021"},{"mesh":9,"translation":[9.04688549,28.00082,6.54086971],"name":"Dira_036"},{"mesh":10,"translation":[0.1976477,13.0008154,8.584591],"name":"Dira_012"},{"mesh":10,"translation":[0.1976477,22.00082,8.584591],"name":"Dira_027"},{"mesh":10,"translation":[0.1976477,28.00082,8.584591],"name":"Dira_037"},{"mesh":11,"translation":[-9.200868,13.0008154,6.82219839],"name":"Dira_013"},{"mesh":11,"translation":[-9.200868,16.0008144,6.82219839],"name":"Dira_018"},{"mesh":11,"translation":[-9.200868,22.00082,6.82219839],"name":"Dira_028"},{"mesh":12,"translation":[6.993052,13.0008154,-7.342909],"name":"Dira_015"},{"mesh":12,"translation":[6.993052,19.00082,-7.342909],"name":"Dira_025"},{"mesh":12,"translation":[6.993052,28.00082,-7.342909],"name":"Dira_040"},{"mesh":13,"translation":[-6.77735233,16.0008144,-7.342909],"name":"Dira_019"},{"mesh":13,"translation":[-6.77735233,25.0008144,-7.342909],"name":"Dira_034"},{"mesh":14,"translation":[-9.200898,79.0012054,6.82217169],"name":"Dira_107"},{"mesh":15,"translation":[3.447617,79.0012054,6.82209349],"name":"Dira_106"},{"mesh":16,"translation":[6.972617,79.0012054,-8.447946],"name":"Dira_109"},{"mesh":17,"translation":[-6.777383,79.0012054,-8.447946],"name":"Dira_108"},{"mesh":18,"translation":[-6.777383,82.19413,-0.812941968],"name":"Dira_111"},{"mesh":19,"translation":[6.972539,82.19413,-0.812941968],"name":"Dira_110"},{"mesh":20,"translation":[0.09753906,85.4983749,1.631886],"name":"Dira_112"},{"translation":[0.0,54.31645,0.0],"name":"VRayCam001.Target"},{"translation":[0.0,54.31645,0.0],"name":"Camera001.Target"},{"mesh":21,"translation":[-6.777196,40.0008736,-8.317473],"name":"Dira_226"},{"mesh":21,"translation":[-6.777196,43.0008965,-8.317473],"name":"Dira_227"},{"mesh":21,"translation":[-6.777196,46.0009155,-8.317473],"name":"Dira_228"},{"mesh":21,"translation":[-6.777196,49.0009346,-8.317473],"name":"Dira_229"},{"mesh":21,"translation":[-6.777196,58.0009956,-8.317473],"name":"Dira_232"},{"mesh":21,"translation":[-6.777196,61.0010147,-8.317473],"name":"Dira_233"},{"mesh":21,"translation":[-6.777196,64.00103,-8.317473],"name":"Dira_234"},{"mesh":21,"translation":[-6.777196,67.00105,-8.317473],"name":"Dira_235"},{"mesh":21,"translation":[-6.777196,70.0010757,-8.317473],"name":"Dira_236"},{"mesh":22,"translation":[6.97264767,37.00085,-8.317473],"name":"Dira_239"},{"mesh":22,"translation":[6.97264767,43.0008965,-8.317473],"name":"Dira_241"},{"mesh":22,"translation":[6.97264767,46.0009155,-8.317473],"name":"Dira_242"},{"mesh":22,"translation":[6.97264767,49.0009346,-8.317473],"name":"Dira_243"},{"mesh":22,"translation":[6.97264767,55.0009766,-8.317473],"name":"Dira_245"},{"mesh":22,"translation":[6.97264767,61.0010147,-8.317473],"name":"Dira_247"},{"mesh":22,"translation":[6.97264767,67.00105,-8.317473],"name":"Dira_249"},{"mesh":22,"translation":[6.97264767,70.0010757,-8.317473],"name":"Dira_250"},{"mesh":22,"translation":[6.97264767,73.00109,-8.317473],"name":"Dira_251"},{"mesh":22,"translation":[6.97264767,76.0011139,-8.317473],"name":"Dira_252"},{"translation":[0.0,54.31645,0.0],"name":"VRayCam001a.Target"},{"mesh":23,"translation":[-6.77735233,43.0009041,6.822207],"name":"Dira_255"},{"mesh":23,"translation":[-6.77735233,49.00095,6.822207],"name":"Dira_257"},{"mesh":23,"translation":[-6.77735233,58.0010223,6.822207],"name":"Dira_260"},{"mesh":23,"translation":[-6.77735233,64.0010757,6.822207],"name":"Dira_262"},{"mesh":23,"translation":[-6.77735233,67.0011,6.822207],"name":"Dira_263"},{"mesh":23,"translation":[-6.77735233,76.00117,6.822207],"name":"Dira_266"},{"mesh":24,"translation":[6.97264767,37.0008545,6.822207],"name":"Dira_267"},{"mesh":24,"translation":[6.97264767,43.0009079,6.822207],"name":"Dira_269"},{"mesh":24,"translation":[6.97264767,49.0009651,6.822207],"name":"Dira_271"},{"mesh":24,"translation":[6.97264767,58.0010529,6.822207],"name":"Dira_274"},{"mesh":24,"translation":[6.97264767,64.0011139,6.822207],"name":"Dira_276"},{"mesh":24,"translation":[6.97264767,67.0011444,6.822207],"name":"Dira_277"},{"mesh":24,"translation":[6.97264767,73.0012,6.822207],"name":"Dira_279"},{"mesh":24,"translation":[6.97264767,76.00123,6.822207],"name":"Dira_280"},{"translation":[22.524828,0.0,7.06674051],"rotation":[-0.707106769,0.0,0.0,0.707106769],"name":"Sky001"},{"camera":0,"translation":[-9.765625E-06,31.0892239,-182.25],"rotation":[1.69697945E-09,-0.997992039,0.06333944,2.673804E-08],"name":"Camera001"},{"camera":1,"translation":[-1.01173282E-05,31.0892239,-231.457489],"rotation":[1.09251719E-09,-0.9987498,0.0499877334,2.182837E-08],"name":"VRayCam001a"}],"cameras":[{"perspective":{"yfov":0.457822353,"zfar":10000.0,"znear":0.1},"type":"perspective","name":"Camera001"},{"perspective":{"yfov":0.495753527,"zfar":10000.0,"znear":0.1},"type":"perspective","name":"VRayCam001a"}],"meshes":[{"primitives":[{"attributes":{"POSITION":1,"NORMAL":2},"indices":0,"material":0}],"name":"Dira_001"},{"primitives":[{"attributes":{"POSITION":4,"NORMAL":5},"indices":3,"material":0}],"name":"Dira_002"},{"primitives":[{"attributes":{"POSITION":7,"NORMAL":8},"indices":6,"material":0}],"name":"Dira_004"},{"primitives":[{"attributes":{"POSITION":10,"NORMAL":11},"indices":9,"material":0}],"name":"Dira_005"},{"primitives":[{"attributes":{"POSITION":13,"NORMAL":14},"indices":12,"material":0}],"name":"Dira_003"},{"primitives":[{"attributes":{"POSITION":16,"NORMAL":17},"indices":15,"material":0}],"name":"Dira_047"},{"primitives":[{"attributes":{"POSITION":19,"NORMAL":20},"indices":18,"material":1}],"name":"Dira_046"},{"primitives":[{"attributes":{"POSITION":22,"NORMAL":23},"indices":21,"material":1}],"name":"Dira_048"},{"primitives":[{"attributes":{"POSITION":25,"NORMAL":26},"indices":24,"material":1}],"name":"Dira_049"},{"primitives":[{"attributes":{"POSITION":28,"NORMAL":29},"indices":27,"material":1}],"name":"Dira_006"},{"primitives":[{"attributes":{"POSITION":31,"NORMAL":32},"indices":30,"material":1}],"name":"Dira_012"},{"primitives":[{"attributes":{"POSITION":34,"NORMAL":35},"indices":33,"material":1}],"name":"Dira_013"},{"primitives":[{"attributes":{"POSITION":37,"NORMAL":38},"indices":36,"material":1}],"name":"Dira_015"},{"primitives":[{"attributes":{"POSITION":40,"NORMAL":41},"indices":39,"material":1}],"name":"Dira_019"},{"primitives":[{"attributes":{"POSITION":43,"NORMAL":44},"indices":42,"material":0}],"name":"Dira_107"},{"primitives":[{"attributes":{"POSITION":46,"NORMAL":47},"indices":45,"material":0}],"name":"Dira_106"},{"primitives":[{"attributes":{"POSITION":49,"NORMAL":50},"indices":48,"material":1}],"name":"Dira_109"},{"primitives":[{"attributes":{"POSITION":52,"NORMAL":53},"indices":51,"material":0}],"name":"Dira_108"},{"primitives":[{"attributes":{"POSITION":55,"NORMAL":56},"indices":54,"material":0}],"name":"Dira_111"},{"primitives":[{"attributes":{"POSITION":58,"NORMAL":59},"indices":57,"material":0}],"name":"Dira_110"},{"primitives":[{"attributes":{"POSITION":61,"NORMAL":62},"indices":60,"material":0}],"name":"Dira_112"},{"primitives":[{"attributes":{"POSITION":64,"NORMAL":65},"indices":63,"material":0}],"name":"Dira_226"},{"primitives":[{"attributes":{"POSITION":67,"NORMAL":68},"indices":66,"material":0}],"name":"Dira_239"},{"primitives":[{"attributes":{"POSITION":70,"NORMAL":71},"indices":69,"material":1}],"name":"Dira_255"},{"primitives":[{"attributes":{"POSITION":73,"NORMAL":74},"indices":72,"material":0}],"name":"Dira_267"}],"accessors":[{"bufferView":0,"componentType":5123,"count":12,"type":"SCALAR","name":"accessorIndices"},{"bufferView":1,"componentType":5126,"count":8,"max":[4.715366,2.8,7.165541],"min":[-2.077829,0.0,-4.72105169],"type":"VEC3","name":"accessorPositions"},{"bufferView":1,"byteOffset":96,"componentType":5126,"count":8,"type":"VEC3","name":"accessorNormals"},{"bufferView":0,"byteOffset":24,"componentType":5123,"count":18,"type":"SCALAR","name":"accessorIndices"},{"bufferView":1,"byteOffset":192,"componentType":5126,"count":12,"max":[6.771409,2.8,2.03750968],"min":[-6.95,0.0,-2.1175096],"type":"VEC3","name":"accessorPositions"},{"bufferView":1,"byteOffset":336,"componentType":5126,"count":12,"type":"VEC3","name":"accessorNormals"},{"bufferView":0,"byteOffset":60,"componentType":5123,"count":12,"type":"SCALAR","name":"accessorIndices"},{"bufferView":1,"byteOffset":480,"componentType":5126,"count":8,"max":[6.875,2.8,3.92499018],"min":[-6.875,0.0,-7.9172864],"type":"VEC3","name":"accessorPositions"},{"bufferView":1,"byteOffset":576,"componentType":5126,"count":8,"type":"VEC3","name":"accessorNormals"},{"bufferView":0,"byteOffset":84,"componentType":5123,"count":12,"type":"SCALAR","name":"accessorIndices"},{"bufferView":1,"byteOffset":672,"componentType":5126,"count":8,"max":[6.875,2.8,3.92499018],"min":[-6.875,0.0,-7.9172864],"type":"VEC3","name":"accessorPositions"},{"bufferView":1,"byteOffset":768,"componentType":5126,"count":8,"type":"VEC3","name":"accessorNormals"},{"bufferView":0,"byteOffset":108,"componentType":5123,"count":12,"type":"SCALAR","name":"accessorIndices"},{"bufferView":1,"byteOffset":864,"componentType":5126,"count":8,"max":[2.44851565,2.8,6.88021469],"min":[-4.451484,0.0,-5.030117],"type":"VEC3","name":"accessorPositions"},{"bufferView":1,"byteOffset":960,"componentType":5126,"count":8,"type":"VEC3","name":"accessorNormals"},{"bufferView":0,"byteOffset":132,"componentType":5123,"count":12,"type":"SCALAR","name":"accessorIndices"},{"bufferView":1,"byteOffset":1056,"componentType":5126,"count":8,"max":[6.874922,2.8,6.88017559],"min":[-6.875,0.0,-5.080137],"type":"VEC3","name":"accessorPositions"},{"bufferView":1,"byteOffset":1152,"componentType":5126,"count":8,"type":"VEC3","name":"accessorNormals"},{"bufferView":0,"byteOffset":156,"componentType":5123,"count":12,"type":"SCALAR","name":"accessorIndices"},{"bufferView":1,"byteOffset":1248,"componentType":5126,"count":8,"max":[6.875,2.8,6.88017559],"min":[-6.874922,0.0,-5.080137],"type":"VEC3","name":"accessorPositions"},{"bufferView":1,"byteOffset":1344,"componentType":5126,"count":8,"type":"VEC3","name":"accessorNormals"},{"bufferView":0,"byteOffset":180,"componentType":5123,"count":12,"type":"SCALAR","name":"accessorIndices"},{"bufferView":1,"byteOffset":1440,"componentType":5126,"count":8,"max":[6.875,2.8,4.927707],"min":[-6.874922,0.0,-6.880156],"type":"VEC3","name":"accessorPositions"},{"bufferView":1,"byteOffset":1536,"componentType":5126,"count":8,"type":"VEC3","name":"accessorNormals"},{"bufferView":0,"byteOffset":204,"componentType":5123,"count":12,"type":"SCALAR","name":"accessorIndices"},{"bufferView":1,"byteOffset":1632,"componentType":5126,"count":8,"max":[6.874922,2.8,4.90729141],"min":[-6.875,0.0,-6.880156],"type":"VEC3","name":"accessorPositions"},{"bufferView":1,"byteOffset":1728,"componentType":5126,"count":8,"type":"VEC3","name":"accessorNormals"},{"bufferView":0,"byteOffset":228,"componentType":5123,"count":12,"type":"SCALAR","name":"accessorIndices"},{"bufferView":1,"byteOffset":1824,"componentType":5126,"count":8,"max":[4.715366,2.8,7.165541],"min":[-2.077829,0.0,-4.72105169],"type":"VEC3","name":"accessorPositions"},{"bufferView":1,"byteOffset":1920,"componentType":5126,"count":8,"type":"VEC3","name":"accessorNormals"},{"bufferView":0,"byteOffset":252,"componentType":5123,"count":18,"type":"SCALAR","name":"accessorIndices"},{"bufferView":1,"byteOffset":2016,"componentType":5126,"count":12,"max":[6.771409,2.8,2.03750968],"min":[-6.95,0.0,-2.1175096],"type":"VEC3","name":"accessorPositions"},{"bufferView":1,"byteOffset":2160,"componentType":5126,"count":12,"type":"VEC3","name":"accessorNormals"},{"bufferView":0,"byteOffset":288,"componentType":5123,"count":12,"type":"SCALAR","name":"accessorIndices"},{"bufferView":1,"byteOffset":2304,"componentType":5126,"count":8,"max":[2.44851565,2.8,6.88021469],"min":[-4.451484,0.0,-5.030117],"type":"VEC3","name":"accessorPositions"},{"bufferView":1,"byteOffset":2400,"componentType":5126,"count":8,"type":"VEC3","name":"accessorNormals"},{"bufferView":0,"byteOffset":312,"componentType":5123,"count":12,"type":"SCALAR","name":"accessorIndices"},{"bufferView":1,"byteOffset":2496,"componentType":5126,"count":8,"max":[6.875,2.8,3.92499018],"min":[-6.875,0.0,-7.9172864],"type":"VEC3","name":"accessorPositions"},{"bufferView":1,"byteOffset":2592,"componentType":5126,"count":8,"type":"VEC3","name":"accessorNormals"},{"bufferView":0,"byteOffset":336,"componentType":5123,"count":12,"type":"SCALAR","name":"accessorIndices"},{"bufferView":1,"byteOffset":2688,"componentType":5126,"count":8,"max":[6.875,2.8,3.92499018],"min":[-6.875,0.0,-7.9172864],"type":"VEC3","name":"accessorPositions"},{"bufferView":1,"byteOffset":2784,"componentType":5126,"count":8,"type":"VEC3","name":"accessorNormals"},{"bufferView":0,"byteOffset":360,"componentType":5123,"count":12,"type":"SCALAR","name":"accessorIndices"},{"bufferView":1,"byteOffset":2880,"componentType":5126,"count":8,"max":[2.44851565,2.8,6.880195],"min":[-4.451484,0.0,-5.030117],"type":"VEC3","name":"accessorPositions"},{"bufferView":1,"byteOffset":2976,"componentType":5126,"count":8,"type":"VEC3","name":"accessorNormals"},{"bufferView":0,"byteOffset":384,"componentType":5123,"count":12,"type":"SCALAR","name":"accessorIndices"},{"bufferView":1,"byteOffset":3072,"componentType":5126,"count":8,"max":[10.4000387,2.8,4.669961],"min":[-10.4,0.0,-5.030039],"type":"VEC3","name":"accessorPositions"},{"bufferView":1,"byteOffset":3168,"componentType":5126,"count":8,"type":"VEC3","name":"accessorNormals"},{"bufferView":0,"byteOffset":408,"componentType":5123,"count":12,"type":"SCALAR","name":"accessorIndices"},{"bufferView":1,"byteOffset":3264,"componentType":5126,"count":8,"max":[6.875039,2.8,5.02999973],"min":[-6.875,0.0,-6.87999964],"type":"VEC3","name":"accessorPositions"},{"bufferView":1,"byteOffset":3360,"componentType":5126,"count":8,"type":"VEC3","name":"accessorNormals"},{"bufferView":0,"byteOffset":432,"componentType":5123,"count":12,"type":"SCALAR","name":"accessorIndices"},{"bufferView":1,"byteOffset":3456,"componentType":5126,"count":8,"max":[6.875,2.8,5.02999973],"min":[-6.875,0.0,-6.87999964],"type":"VEC3","name":"accessorPositions"},{"bufferView":1,"byteOffset":3552,"componentType":5126,"count":8,"type":"VEC3","name":"accessorNormals"},{"bufferView":0,"byteOffset":456,"componentType":5123,"count":18,"type":"SCALAR","name":"accessorIndices"},{"bufferView":1,"byteOffset":3648,"componentType":5126,"count":12,"max":[6.875,2.8,12.3049994],"min":[-6.875,0.0,-12.3049994],"type":"VEC3","name":"accessorPositions"},{"bufferView":1,"byteOffset":3792,"componentType":5126,"count":12,"type":"VEC3","name":"accessorNormals"},{"bufferView":0,"byteOffset":492,"componentType":5123,"count":18,"type":"SCALAR","name":"accessorIndices"},{"bufferView":1,"byteOffset":3936,"componentType":5126,"count":12,"max":[6.875,2.8,12.3049994],"min":[-6.875,0.0,-12.3049994],"type":"VEC3","name":"accessorPositions"},{"bufferView":1,"byteOffset":4080,"componentType":5126,"count":12,"type":"VEC3","name":"accessorNormals"},{"bufferView":0,"byteOffset":528,"componentType":5123,"count":24,"type":"SCALAR","name":"accessorIndices"},{"bufferView":1,"byteOffset":4224,"componentType":5126,"count":16,"max":[13.75,2.8,9.860175],"min":[-13.75,0.0,-9.860195],"type":"VEC3","name":"accessorPositions"},{"bufferView":1,"byteOffset":4416,"componentType":5126,"count":16,"type":"VEC3","name":"accessorNormals"},{"bufferView":0,"byteOffset":576,"componentType":5123,"count":12,"type":"SCALAR","name":"accessorIndices"},{"bufferView":1,"byteOffset":4608,"componentType":5126,"count":8,"max":[6.874922,2.8,4.90729141],"min":[-6.875,0.0,-6.880156],"type":"VEC3","name":"accessorPositions"},{"bufferView":1,"byteOffset":4704,"componentType":5126,"count":8,"type":"VEC3","name":"accessorNormals"},{"bufferView":0,"byteOffset":600,"componentType":5123,"count":12,"type":"SCALAR","name":"accessorIndices"},{"bufferView":1,"byteOffset":4800,"componentType":5126,"count":8,"max":[6.875,2.8,4.927707],"min":[-6.874922,0.0,-6.880156],"type":"VEC3","name":"accessorPositions"},{"bufferView":1,"byteOffset":4896,"componentType":5126,"count":8,"type":"VEC3","name":"accessorNormals"},{"bufferView":0,"byteOffset":624,"componentType":5123,"count":12,"type":"SCALAR","name":"accessorIndices"},{"bufferView":1,"byteOffset":4992,"componentType":5126,"count":8,"max":[6.874922,2.8,6.88017559],"min":[-6.875,0.0,-5.080137],"type":"VEC3","name":"accessorPositions"},{"bufferView":1,"byteOffset":5088,"componentType":5126,"count":8,"type":"VEC3","name":"accessorNormals"},{"bufferView":0,"byteOffset":648,"componentType":5123,"count":12,"type":"SCALAR","name":"accessorIndices"},{"bufferView":1,"byteOffset":5184,"componentType":5126,"count":8,"max":[6.875,2.8,6.88017559],"min":[-6.874922,0.0,-5.080137],"type":"VEC3","name":"accessorPositions"},{"bufferView":1,"byteOffset":5280,"componentType":5126,"count":8,"type":"VEC3","name":"accessorNormals"},{"bufferView":2,"componentType":5126,"count":12,"max":[2.0],"min":[0.0],"type":"SCALAR","name":"accessorAnimationInput"},{"bufferView":3,"componentType":5126,"count":12,"type":"VEC3","name":"accessorAnimationPositions"},{"bufferView":2,"byteOffset":48,"componentType":5126,"count":12,"max":[2.0],"min":[0.0],"type":"SCALAR","name":"accessorAnimationInput"},{"bufferView":4,"componentType":5126,"count":12,"type":"VEC4","name":"accessorAnimationRotations"},{"bufferView":2,"byteOffset":96,"componentType":5126,"count":25,"max":[2.0],"min":[0.0],"type":"SCALAR","name":"accessorAnimationInput"},{"bufferView":3,"byteOffset":144,"componentType":5126,"count":25,"type":"VEC3","name":"accessorAnimationPositions"},{"bufferView":2,"byteOffset":196,"componentType":5126,"count":25,"max":[2.0],"min":[0.0],"type":"SCALAR","name":"accessorAnimationInput"},{"bufferView":4,"byteOffset":192,"componentType":5126,"count":25,"type":"VEC4","name":"accessorAnimationRotations"}],"bufferViews":[{"buffer":0,"byteLength":672,"name":"bufferViewScalar"},{"buffer":0,"byteOffset":672,"byteLength":5376,"byteStride":12,"name":"bufferViewFloatVec3"},{"buffer":0,"byteOffset":6048,"byteLength":296,"name":"bufferViewAnimationFloatScalar"},{"buffer":0,"byteOffset":6344,"byteLength":444,"name":"bufferViewAnimationFloatVec3"},{"buffer":0,"byteOffset":6788,"byteLength":592,"name":"bufferViewAnimationFloatVec4"}],"buffers":[{"uri":"Cubes model.bin","byteLength":7380}],"materials":[{"pbrMetallicRoughness":{"baseColorFactor":[0.0392156877,0.5294118,0.152941182,1.0],"metallicFactor":0.0,"roughnessFactor":0.450053632},"name":"Boxes_Green"},{"pbrMetallicRoughness":{"baseColorFactor":[1.0,0.0,0.0,1.0],"metallicFactor":0.0,"roughnessFactor":0.450053632},"name":"Boxes_Red"}],"animations":[{"channels":[{"sampler":0,"target":{"node":116,"path":"translation"}},{"sampler":1,"target":{"node":116,"path":"rotation"}},{"sampler":2,"target":{"node":117,"path":"translation"}},{"sampler":3,"target":{"node":117,"path":"rotation"}}],"samplers":[{"input":75,"output":76},{"input":77,"output":78},{"input":79,"output":80},{"input":81,"output":82}],"name":"All Animations"}]}